<svg width="204" height="48" viewBox="0 0 204 48" fill="none" xmlns="http://www.w3.org/2000/svg">
  <path d="M49.6683 33.3027C42.5343 40.9073 33.0633 45.9614 29.6383 47.7557C29.3544 47.8967 28.8293 47.9906 28.4508 47.9906C27.9257 47.9906 27.358 47.8497 26.9748 47.6618C21.6007 44.7825 0 32.2646 0 15.3033C0 7.08328 6.13581 0 14.5566 0C19.5996 0 24.1175 2.4566 26.7336 6.37871C26.9701 6.75448 27.0647 7.041 26.8282 7.7033C26.0192 9.77943 25.5461 12.0012 25.5461 14.3169C25.5461 24.613 32.8741 32.6451 43.0074 32.6451C45.0038 32.6451 46.9576 32.5042 48.8121 31.9358C49.8103 31.6963 50.2407 32.6404 49.6683 33.3027ZM58.4723 14.4578C58.4723 22.4899 51.9533 29.0048 43.8684 29.0048C35.7315 29.0048 29.2645 22.4852 29.2645 14.4578C29.2645 6.47265 35.7362 0.00469713 43.8684 0.00469713C51.9533 -4.37455e-09 58.4723 6.47265 58.4723 14.4578ZM75.5504 32.4525H89.0141V39.8693H67.5128V9.11713H75.5504V32.4525ZM118.794 27.1165C118.794 35.1486 113.274 40.3437 105.189 40.3437C97.6714 40.3437 92.25 35.1486 92.25 27.2105C92.25 19.5589 98.0546 14.2699 105.761 14.2699C113.326 14.2652 118.794 19.5072 118.794 27.1165ZM111.708 27.1165C111.708 23.5279 109.328 21.0244 105.761 21.0244C101.905 21.0244 99.2894 23.5279 99.2894 27.1165C99.2894 30.7991 101.858 33.4013 105.567 33.4013C109.233 33.3966 111.708 30.7991 111.708 27.1165ZM150.287 27.1165C150.287 35.1486 145.291 40.3437 138.919 40.3437C135.589 40.3437 132.641 38.9251 131.118 37.3704V48H123.601V14.7913H130.929V18.0041C133.166 15.5945 136.066 14.2746 139.208 14.2746C145.911 14.2652 150.287 19.1784 150.287 27.1165ZM143.058 27.1165C143.058 24.1902 141.724 20.456 137.49 20.456C133.445 20.456 131.213 23.7158 131.213 27.3984C131.213 30.8461 132.972 34.1998 137.396 34.1998C141.535 34.1998 143.058 30.4186 143.058 27.1165ZM179.022 27.0179C179.022 27.6802 178.974 28.5774 178.832 29.3336H161.229C161.371 32.166 163.893 34.3877 167.223 34.3877C169.745 34.3877 171.363 33.4436 172.03 31.9311H178.785C177.929 36.4638 173.742 40.339 167.081 40.339C158.183 40.339 154.095 33.9603 154.095 27.3984C154.095 20.8365 158.807 14.2652 167.176 14.2652C174.173 14.2652 179.022 18.9435 179.022 27.0179ZM161.371 24.0446H171.935C171.793 21.4471 169.939 19.9346 167.034 19.9346C164.371 19.9346 162.086 21.3532 161.371 24.0446ZM203.664 32.3585C203.664 37.0839 199.478 40.339 193.531 40.339C186.444 40.339 183.114 36.182 183.114 31.9311V31.6962H189.775V31.9311C189.775 33.2087 190.773 34.5756 193.531 34.5756C195.433 34.5756 196.578 33.7254 196.578 32.5464C196.578 28.8639 183.256 30.1368 183.256 21.588C183.256 17.3371 187.49 14.2652 193.105 14.2652C199.577 14.2652 203.238 18.2812 203.238 22.1987V22.4382H196.1V22.2503C196.1 20.7848 195.102 19.6528 193.006 19.6528C191.151 19.6528 190.248 20.55 190.248 21.4471C190.253 25.4632 203.664 23.8098 203.664 32.3585Z" fill="#EB194B"/>
</svg>
