<svg width="134" height="32" viewBox="0 0 134 32" fill="none" xmlns="http://www.w3.org/2000/svg">
  <path d="M32.6253 21.8753C27.9392 26.8705 21.7181 30.1904 19.4683 31.369C19.2818 31.4615 18.9369 31.5232 18.6883 31.5232C18.3434 31.5232 17.9705 31.4307 17.7188 31.3073C14.1887 29.4159 0 21.1934 0 10.0521C0 4.65274 4.03038 0 9.56167 0C12.8742 0 15.8419 1.61365 17.5603 4.18994C17.7157 4.43677 17.7778 4.62497 17.6224 5.06001C17.0911 6.42374 16.7803 7.88313 16.7803 9.40421C16.7803 16.1674 21.5938 21.4433 28.25 21.4433C29.5613 21.4433 30.8447 21.3508 32.0628 20.9774C32.7185 20.8201 33.0013 21.4402 32.6253 21.8753ZM38.4083 9.49678C38.4083 14.7728 34.1262 19.0522 28.8155 19.0522C23.4707 19.0522 19.2228 14.7697 19.2228 9.49678C19.2228 4.25164 23.4738 0.00308537 28.8155 0.00308537C34.1262 -2.87348e-09 38.4083 4.25164 38.4083 9.49678ZM49.6262 21.3168H58.4701V26.1886H44.3466V5.98871H49.6262V21.3168ZM78.0316 17.8119C78.0316 23.0878 74.4051 26.5003 69.0945 26.5003C64.1567 26.5003 60.5956 23.0878 60.5956 17.8736C60.5956 12.8475 64.4084 9.37336 69.4705 9.37336C74.4393 9.37028 78.0316 12.8135 78.0316 17.8119ZM73.3766 17.8119C73.3766 15.4546 71.8135 13.8101 69.4705 13.8101C66.9379 13.8101 65.2195 15.4546 65.2195 17.8119C65.2195 20.2308 66.9068 21.9401 69.3431 21.9401C71.7514 21.937 73.3766 20.2308 73.3766 17.8119ZM98.7179 17.8119C98.7179 23.0878 95.4365 26.5003 91.2507 26.5003C89.063 26.5003 87.1271 25.5685 86.1265 24.5472V31.5294H81.1887V9.71584H86.0022V11.8262C87.472 10.2434 89.3769 9.37645 91.4403 9.37645C95.8435 9.37028 98.7179 12.5976 98.7179 17.8119ZM93.9697 17.8119C93.9697 15.8897 93.0934 13.4368 90.3122 13.4368C87.6554 13.4368 86.1886 15.578 86.1886 17.997C86.1886 20.2616 87.3446 22.4646 90.2501 22.4646C92.9691 22.4646 93.9697 19.9809 93.9697 17.8119ZM117.593 17.7471C117.593 18.1821 117.562 18.7714 117.468 19.2681H105.906C105.999 21.1286 107.655 22.588 109.843 22.588C111.499 22.588 112.562 21.9678 113 20.9744H117.437C116.875 23.9517 114.125 26.4972 109.749 26.4972C103.904 26.4972 101.219 22.3072 101.219 17.997C101.219 13.6867 104.314 9.37028 109.812 9.37028C114.408 9.37028 117.593 12.4433 117.593 17.7471ZM105.999 15.794H112.938C112.844 14.0878 111.626 13.0943 109.718 13.0943C107.969 13.0943 106.468 14.0261 105.999 15.794ZM133.779 21.2551C133.779 24.359 131.029 26.4972 127.123 26.4972C122.468 26.4972 120.281 23.7666 120.281 20.9744V20.8201H124.656V20.9744C124.656 21.8136 125.312 22.7114 127.123 22.7114C128.372 22.7114 129.124 22.153 129.124 21.3785C129.124 18.9596 120.374 19.7957 120.374 14.1804C120.374 11.3881 123.155 9.37028 126.844 9.37028C131.095 9.37028 133.5 12.0083 133.5 14.5815V14.7388H128.811V14.6154C128.811 13.6528 128.155 12.9092 126.778 12.9092C125.56 12.9092 124.967 13.4985 124.967 14.0878C124.97 16.7258 133.779 15.6398 133.779 21.2551Z" fill="#EB194B"/>
</svg>
