<svg width="57" height="16" viewBox="0 0 57 16" fill="none" xmlns="http://www.w3.org/2000/svg">
<path d="M42.7053 0C42.1496 0 41.6992 0.442353 41.6992 0.988235V14.9176C41.6992 15.4635 42.1496 15.9059 42.7053 15.9059C43.2611 15.9059 43.7115 15.4635 43.7115 14.9176V0.988235C43.7115 0.442353 43.2611 0 42.7053 0ZM34.8002 4.51765C31.686 4.51765 29.1467 7.01177 29.1467 10.0706V15.0118C29.1467 15.5576 29.5971 16 30.1529 16C30.7086 16 31.159 15.5576 31.159 15.0118V10.0706C31.159 8.09412 32.7879 6.49412 34.8002 6.49412C36.8124 6.49412 38.4413 8.09412 38.4413 10.0706V15.0118C38.4413 15.5576 38.8917 16 39.4475 16C40.0032 16 40.4536 15.5576 40.4536 15.0118V10.0706C40.4536 7.01177 37.9143 4.51765 34.8002 4.51765ZM50.6105 4.51765C47.391 4.51765 44.7655 7.09647 44.7655 10.2588C44.7655 11.3694 45.0913 12.4424 45.695 13.3647C45.9728 13.7882 46.2986 14.1647 46.6723 14.5035C46.9694 14.7671 47.2952 15.0024 47.6401 15.2094C48.5312 15.7271 49.5565 16 50.601 16C53.8205 16 56.446 13.4212 56.446 10.2588C56.446 7.09647 53.8301 4.51765 50.6105 4.51765ZM50.6105 14.0235C49.9302 14.0235 49.2499 13.8447 48.6654 13.5059C48.4354 13.3741 48.2246 13.2141 48.0234 13.0447C47.7743 12.8282 47.5635 12.5741 47.3814 12.3012C46.979 11.6988 46.7681 10.9929 46.7681 10.2682C46.7681 8.18824 48.4833 6.50353 50.601 6.50353C52.7186 6.50353 54.4338 8.18824 54.4338 10.2682C54.4338 12.3482 52.7282 14.0235 50.6105 14.0235ZM10.1168 8.10353C10.0401 8.02824 9.95388 7.96235 9.85806 7.92471L14.5245 3.34118C14.6203 3.24706 14.6874 3.14353 14.7353 3.03059C14.9557 2.65412 14.8982 2.16471 14.5724 1.84471C14.1796 1.45882 13.5471 1.45882 13.1543 1.84471L2.31698 12.4894V0.988235C2.31698 0.442353 1.86662 0 1.31086 0C0.898834 0 0.544298 0.244706 0.390985 0.602353C0.304746 0.74353 0.256836 0.903529 0.256836 1.08235V14.9647C0.256836 15.36 0.505969 15.7271 0.87967 15.8776C1.00424 15.9247 1.13839 15.9529 1.26295 15.9529C1.52167 15.9529 1.78038 15.8494 1.97202 15.6612L8.50699 9.24235C8.5549 9.33647 8.61239 9.42118 8.68905 9.49647L14.8216 15.52C15.0228 15.7082 15.2719 15.8118 15.5306 15.8118C15.7894 15.8118 16.0481 15.7176 16.2397 15.52C16.6326 15.1341 16.6326 14.5129 16.2397 14.1271L10.1168 8.10353ZM22.056 4.47059C18.8364 4.47059 16.211 7.04941 16.211 10.2118C16.211 13.3741 18.8364 15.9529 22.056 15.9529H24.6911C25.2468 15.9529 25.6972 15.5106 25.6972 14.9647C25.6972 14.4188 25.2468 13.9765 24.6911 13.9765H22.056C20.2929 13.9765 18.7981 12.8 18.3573 11.2H26.895C27.4507 11.2 27.9011 10.7576 27.9011 10.2118C27.9011 7.04941 25.2756 4.47059 22.056 4.47059ZM18.3573 9.22353C18.7981 7.62353 20.2929 6.44706 22.056 6.44706C23.8191 6.44706 25.3139 7.62353 25.7547 9.22353H18.3573Z" fill="#F82E52"/>
</svg>
