<svg width="125" height="24" viewBox="0 0 125 24" fill="none" xmlns="http://www.w3.org/2000/svg">
<path d="M2.08306 23.1165H12.4356C12.9861 23.1166 13.5143 22.901 13.9046 22.5171C14.2949 22.1331 14.5157 21.6119 14.5187 21.0675V9.67554H2.08306C1.5306 9.67554 1.00077 9.89259 0.610115 10.2789C0.219465 10.6653 0 11.1893 0 11.7357L0 21.0675C0.002963 21.6119 0.223735 22.1331 0.614065 22.5171C1.00439 22.901 1.53254 23.1166 2.08306 23.1165V23.1165Z" fill="#7A00DD"/>
<path d="M16.5917 23.1189H26.9061C27.1798 23.1189 27.4509 23.0656 27.7038 22.9619C27.9566 22.8582 28.1864 22.7063 28.3798 22.5147C28.5733 22.3232 28.7267 22.0958 28.8312 21.8456C28.9358 21.5954 28.9895 21.3273 28.9892 21.0565V11.1482C28.9891 10.191 28.6804 9.25882 28.108 8.48705L23.2422 1.90293C23.0759 1.68279 22.8602 1.50386 22.612 1.38026C22.3639 1.25666 22.0901 1.19176 21.8122 1.19069C21.5344 1.18961 21.2601 1.25239 21.0109 1.37406C20.7618 1.49574 20.5447 1.67299 20.3766 1.89184L14.5176 9.6757V21.0676C14.5199 21.6109 14.7392 22.1313 15.1277 22.5155C15.5161 22.8997 16.0423 23.1166 16.5917 23.1189V23.1189Z" fill="#0092FF"/>
<path d="M6.20723 1.44591L1.76082 7.347C1.59751 7.5639 1.49835 7.82141 1.47441 8.0908C1.45048 8.36018 1.50271 8.63085 1.62527 8.87259C1.74783 9.11433 1.9359 9.31763 2.1685 9.4598C2.40109 9.60197 2.66906 9.67742 2.94249 9.67772H14.5215L20.0555 2.33074C20.2192 2.11324 20.3185 1.85491 20.3421 1.58473C20.3657 1.31456 20.3127 1.04322 20.189 0.801177C20.0654 0.559132 19.876 0.355954 19.6421 0.214439C19.4082 0.072925 19.139 -0.00132596 18.8648 1.7924e-05L8.99885 0.0554585C8.45638 0.0572644 7.92177 0.183828 7.43727 0.425147C6.95277 0.666466 6.53167 1.01593 6.20723 1.44591V1.44591Z" fill="#58D7FF"/>
<path d="M50.5617 11.2166C50.3734 11.0495 50.2239 10.8441 50.1237 10.6143C50.0234 10.3846 49.9747 10.1361 49.981 9.88601C49.9765 9.63613 50.026 9.38817 50.1261 9.15872C50.2263 8.92926 50.3748 8.72359 50.5617 8.55543C50.972 8.19207 51.5093 8.00115 52.0596 8.0232C52.6041 8.00345 53.135 8.19438 53.5395 8.55543C53.7255 8.7243 53.8734 8.93011 53.9735 9.1594C54.0736 9.38869 54.1236 9.63629 54.1202 9.88601C54.1259 10.1361 54.0769 10.3844 53.9767 10.614C53.8765 10.8436 53.7273 11.0492 53.5395 11.2166C53.1358 11.5793 52.6046 11.7711 52.0596 11.751C51.5088 11.7734 50.9712 11.5816 50.5617 11.2166V11.2166Z" fill="#0092FF"/>
<path d="M53.8874 12.9021H50.2168V23.1165H53.8874V12.9021Z" fill="#0092FF"/>
<path d="M125.001 8.20508V23.1119H121.33V8.20508H125.001Z" fill="#0092FF"/>
<path d="M78.1963 13.4653C77.7264 12.6964 77.0399 12.0799 76.2209 11.6912C75.3221 11.2688 74.3368 11.0578 73.3418 11.0747C72.4047 11.0614 71.4771 11.2617 70.6309 11.6601C69.8472 12.0276 69.1655 12.5778 68.6443 13.2635C68.3076 13.7049 68.0415 14.1948 67.855 14.716L71.2857 15.5787C71.3785 15.142 71.6209 14.7503 71.9718 14.4698C72.3487 14.1892 72.8122 14.0466 73.2835 14.0662C73.5424 14.0544 73.8007 14.0993 74.0399 14.1979C74.2791 14.2964 74.4932 14.4461 74.667 14.6362C75.0283 15.0739 75.2221 15.6235 75.2141 16.1885H72.5234C70.8193 16.1885 69.5382 16.5315 68.6802 17.2175C68.0231 17.7468 67.5826 18.494 67.4403 19.3203C67.298 20.1465 67.4637 20.9958 67.9066 21.7104C68.2533 22.2373 68.7396 22.66 69.3125 22.9323C69.9312 23.2298 70.6112 23.3817 71.2991 23.3758C72.1106 23.3805 72.9121 23.1982 73.6401 22.8436C74.292 22.5617 74.8401 22.0877 75.2097 21.4864L75.7747 23.143H78.9139V16.1508C78.9305 15.2072 78.6821 14.2776 78.1963 13.4653V13.4653ZM75.1895 18.2531C75.1969 18.6963 75.0653 19.131 74.8128 19.4972C74.5666 19.8536 74.2293 20.139 73.8351 20.3244C73.4478 20.5124 73.0221 20.6102 72.5907 20.6104C72.208 20.6309 71.8307 20.5144 71.5278 20.2822C71.4016 20.1633 71.302 20.0195 71.2357 19.86C71.1693 19.7006 71.1377 19.5291 71.1427 19.3567C71.1478 19.1843 71.1895 19.015 71.2651 18.8596C71.3408 18.7042 71.4486 18.5663 71.5817 18.4549C71.8754 18.2332 72.3216 18.1045 72.927 18.1045H75.2029L75.1895 18.2531Z" fill="#0092FF"/>
<path d="M94.1311 23.1186L91.0077 17.2752C91.7629 16.9823 92.419 16.4841 92.9001 15.8382C93.4656 15.0647 93.7636 14.1314 93.75 13.177V12.9043C93.7605 12.0675 93.5453 11.2431 93.1266 10.5159C92.6864 9.77903 92.0315 9.19081 91.2476 8.82828C90.2975 8.39017 89.2573 8.17682 88.2093 8.20513H81.0879V23.112H84.7585V17.7808H87.494L89.9874 23.1275L94.1311 23.1186ZM84.7585 11.2277H87.9963C88.6675 11.2277 89.172 11.3904 89.5098 11.7156C89.6807 11.8919 89.8134 12.1009 89.8998 12.3297C89.9861 12.5585 90.0244 12.8023 90.0121 13.0462V13.3256C90.028 13.5773 89.9916 13.8295 89.9053 14.0667C89.8189 14.3039 89.6843 14.5211 89.5098 14.705C89.172 15.0302 88.6675 15.1936 87.9963 15.1951H84.7585V11.2277Z" fill="#0092FF"/>
<path d="M106.619 16.9939C106.642 15.9055 106.378 14.83 105.852 13.8737C105.361 13.0001 104.625 12.2854 103.733 11.8158C102.779 11.3241 101.716 11.0778 100.641 11.0995C99.5419 11.0805 98.4562 11.3384 97.4859 11.849C96.5806 12.335 95.8392 13.0729 95.3535 13.9713C94.8295 14.9671 94.5688 16.0779 94.5956 17.2001C94.5956 21.1342 97.3402 23.2831 100.661 23.2831C103.323 23.2831 105.246 22.0146 106.204 20.0831L102.594 19.1827C102.273 19.8946 101.493 20.3314 100.54 20.3314C99.1631 20.3314 98.3133 19.3379 98.2483 18.0628L106.556 18.0495C106.598 17.6992 106.619 17.3467 106.619 16.9939ZM98.2685 16.047C98.3315 15.4658 98.6103 14.9284 99.051 14.539C99.4874 14.1811 100.041 13.9927 100.607 14.009C101.195 13.9889 101.768 14.1857 102.217 14.5612C102.431 14.7449 102.6 14.9739 102.712 15.2311C102.823 15.4884 102.875 15.7672 102.863 16.047H98.2685Z" fill="#0092FF"/>
<path d="M118.466 13.4653C117.997 12.6954 117.311 12.0786 116.491 11.6912C115.593 11.2688 114.608 11.0578 113.614 11.0747C112.675 11.0609 111.745 11.2612 110.896 11.6601C110.113 12.0284 109.432 12.5785 108.91 13.2635C108.575 13.706 108.309 14.1956 108.12 14.716L111.551 15.5787C111.645 15.1417 111.888 14.7501 112.239 14.4698C112.616 14.1896 113.078 14.0469 113.549 14.0662C113.808 14.0542 114.067 14.0991 114.306 14.1976C114.546 14.2961 114.76 14.4459 114.935 14.6362C115.295 15.0743 115.489 15.6237 115.482 16.1885H112.791C111.087 16.1885 109.806 16.5315 108.948 17.2175C108.291 17.7468 107.85 18.494 107.708 19.3203C107.566 20.1465 107.731 20.9958 108.174 21.7104C108.521 22.2373 109.007 22.66 109.58 22.9323C110.199 23.2301 110.879 23.3819 111.567 23.3758C112.38 23.3724 113.182 23.1818 113.908 22.8192C114.56 22.5373 115.108 22.0633 115.477 21.462L116.042 23.1186H119.181V16.1508C119.2 15.2072 118.953 14.2772 118.466 13.4653V13.4653ZM115.462 18.2531C115.469 18.6963 115.337 19.131 115.085 19.4972C114.839 19.8536 114.501 20.139 114.107 20.3244C113.72 20.5119 113.294 20.6098 112.863 20.6104C112.476 20.6338 112.094 20.5172 111.789 20.2822C111.662 20.1637 111.562 20.0199 111.495 19.8604C111.428 19.7009 111.396 19.5292 111.401 19.3566C111.406 19.1841 111.448 19.0145 111.524 18.8591C111.6 18.7037 111.709 18.5659 111.843 18.4549C112.141 18.2228 112.59 18.106 113.188 18.1045H115.466L115.462 18.2531Z" fill="#0092FF"/>
<path d="M61.3619 23.3513C60.7222 23.3506 60.0984 23.1539 59.5764 22.7881C59.0543 22.4224 58.6598 21.9056 58.447 21.3089C57.5501 18.7985 54.8594 11.2786 54.8594 11.2786H58.7475L61.3507 19.7366H61.3732L63.9697 11.2874H67.878C67.878 11.2874 65.176 18.8074 64.2791 21.3177C64.0647 21.9131 63.6692 22.4283 63.1468 22.7924C62.6245 23.1565 62.001 23.3518 61.3619 23.3513V23.3513Z" fill="#0092FF"/>
<path d="M34.6504 8.2207H38.5676L42.1239 19.4507H42.144L45.7317 8.2207H49.6175C49.6175 8.2207 45.9581 18.7988 45.0612 21.3047C44.848 21.9007 44.4532 22.4167 43.9311 22.7817C43.4091 23.1466 42.7856 23.3426 42.1463 23.3426C41.507 23.3426 40.8835 23.1466 40.3614 22.7817C39.8394 22.4167 39.4446 21.9007 39.2313 21.3047L34.6504 8.2207Z" fill="#0092FF"/>
</svg>
